<?xml version="1.0" encoding="UTF-8" standalone="no"?>
<!DOCTYPE svg PUBLIC "-//W3C//DTD SVG 1.1//EN" "http://www.w3.org/Graphics/SVG/1.1/DTD/svg11.dtd">
<svg version="1.1" xmlns="http://www.w3.org/2000/svg" xmlns:xlink="http://www.w3.org/1999/xlink" preserveAspectRatio="xMidYMid meet" viewBox="0 0 512 512" width="512" height="512"><defs><path d="M472.34 83.42C474.57 85.65 474.57 89.27 472.34 91.51C395.37 168.48 168.49 395.35 91.52 472.33C89.28 474.56 85.66 474.56 83.43 472.33C72.93 461.82 45.45 434.35 34.95 423.85C32.72 421.61 32.72 417.99 34.95 415.76C111.92 338.79 338.8 111.91 415.77 34.94C418 32.7 421.62 32.7 423.86 34.94C434.36 45.44 461.83 72.91 472.34 83.42Z" id="a3HwabElC"></path><path d="M464.73 225.1C469.61 229.98 469.61 237.89 464.73 242.78C418.57 288.93 288.95 418.56 242.79 464.71C237.91 469.6 229.99 469.6 225.11 464.71C215.57 455.17 195.77 435.37 186.22 425.83C181.34 420.94 181.34 413.03 186.22 408.15C232.38 361.99 362.01 232.36 408.16 186.21C413.04 181.33 420.96 181.33 425.84 186.21C435.39 195.75 455.18 215.55 464.73 225.1Z" id="b4JPiJ962"></path><path d="M470.35 364.35C475.23 369.24 475.23 377.15 470.35 382.04C450.92 401.46 401.48 450.91 382.05 470.34C377.16 475.22 369.25 475.22 364.37 470.34C354.82 460.8 335.02 441 325.48 431.45C320.6 426.57 320.6 418.65 325.48 413.77C344.91 394.34 394.35 344.9 413.78 325.47C418.67 320.58 426.58 320.58 431.46 325.47C441.01 335.01 460.81 354.81 470.35 364.35Z" id="axexS6ekl"></path></defs><g><g><g><use xlink:href="#a3HwabElC" opacity="1" fill="#363636" fill-opacity="1"></use></g><g><use xlink:href="#b4JPiJ962" opacity="1" fill="#363636" fill-opacity="1"></use></g><g><use xlink:href="#axexS6ekl" opacity="1" fill="#363636" fill-opacity="1"></use></g></g></g></svg>